# Blender 4.1.1
# www.blender.org
o Plane.001
v -9.051516 -0.184011 2.361616
v -3.068457 -0.184011 2.361616
v -9.051516 -0.184011 -2.128375
v -3.068457 -0.184011 -2.128375
v -9.051516 2.236189 -2.128375
v -9.051516 2.236189 2.361616
v -3.068457 2.236189 2.361616
v -3.068457 2.236189 -2.128375
v -3.068457 -0.184011 2.361616
v 2.914602 -0.184011 2.361616
v -3.068457 -0.184011 -2.128375
v 2.914602 -0.184011 -2.128375
v -3.068457 2.236189 -2.128375
v -3.068457 2.236189 2.361616
v 2.914602 2.236189 2.361616
v 2.914602 2.236189 -2.128375
v 2.914602 -0.184011 2.361616
v 8.897661 -0.184011 2.361616
v 2.914602 -0.184011 -2.128375
v 8.897661 -0.184011 -2.128375
v 2.914602 2.236189 -2.128375
v 2.914602 2.236189 2.361616
v 8.897661 2.236189 2.361616
v 8.897661 2.236189 -2.128375
vn -0.0000 -1.0000 -0.0000
vn -0.0000 1.0000 -0.0000
vn -0.0000 -0.0000 -1.0000
vn -0.0000 -0.0000 1.0000
vn 1.0000 -0.0000 -0.0000
vn -1.0000 -0.0000 -0.0000
vt 0.219129 0.219261
vt 0.780270 0.780739
vt 0.219129 0.780739
vt 0.999299 0.000100
vt 0.000100 0.999900
vt 0.000100 0.000100
vt 0.476883 0.122200
vt 0.491992 0.888171
vt 0.476883 0.888171
vt 0.549950 0.852237
vt 0.535645 0.127009
vt 0.549951 0.127009
vt 0.463938 0.899524
vt 0.443420 0.118951
vt 0.463937 0.118951
vt 0.148768 0.887206
vt 0.128436 0.113697
vt 0.148768 0.113697
vt 0.780270 0.219261
vt 0.999299 0.999900
vt 0.491992 0.122200
vt 0.535645 0.852237
vt 0.443421 0.899524
vt 0.128436 0.887206
s 1
f 3/1/1 2/2/1 1/3/1
f 7/4/2 5/5/2 6/6/2
f 3/7/3 8/8/3 4/9/3
f 2/10/4 6/11/4 1/12/4
f 4/13/5 7/14/5 2/15/5
f 1/16/6 5/17/6 3/18/6
f 11/1/1 10/2/1 9/3/1
f 15/4/2 13/5/2 14/6/2
f 11/7/3 16/8/3 12/9/3
f 10/10/4 14/11/4 9/12/4
f 12/13/5 15/14/5 10/15/5
f 9/16/6 13/17/6 11/18/6
f 19/1/1 18/2/1 17/3/1
f 23/4/2 21/5/2 22/6/2
f 19/7/3 24/8/3 20/9/3
f 18/10/4 22/11/4 17/12/4
f 20/13/5 23/14/5 18/15/5
f 17/16/6 21/17/6 19/18/6
f 3/1/1 4/19/1 2/2/1
f 7/4/2 8/20/2 5/5/2
f 3/7/3 5/21/3 8/8/3
f 2/10/4 7/22/4 6/11/4
f 4/13/5 8/23/5 7/14/5
f 1/16/6 6/24/6 5/17/6
f 11/1/1 12/19/1 10/2/1
f 15/4/2 16/20/2 13/5/2
f 11/7/3 13/21/3 16/8/3
f 10/10/4 15/22/4 14/11/4
f 12/13/5 16/23/5 15/14/5
f 9/16/6 14/24/6 13/17/6
f 19/1/1 20/19/1 18/2/1
f 23/4/2 24/20/2 21/5/2
f 19/7/3 21/21/3 24/8/3
f 18/10/4 23/22/4 22/11/4
f 20/13/5 24/23/5 23/14/5
f 17/16/6 22/24/6 21/17/6
